<svg width="44" height="44" viewBox="0 0 44 44" fill="none" xmlns="http://www.w3.org/2000/svg">
<g filter="url(#filter0_d)">
<circle cx="22" cy="18" r="18" fill="#F5F5F5"/>
<g clip-path="url(#clip0)">
<path d="M28.6544 12.1508C28.2855 12.0429 19.2624 11.1445 16.0936 15.4257C14.6902 17.3222 14.6691 19.9221 16.0233 23.1525C15.6798 23.8655 15.379 24.6166 15.134 25.4091C15.0594 25.6499 15.1942 25.9052 15.4348 25.9795C15.4796 25.9934 15.525 26 15.5699 26C15.7643 26 15.9449 25.8744 16.0052 25.6787C18.4204 17.8703 26.2693 14.0927 28.6762 13.1383C28.9105 13.0454 29.2235 12.3174 28.6544 12.1508Z" fill="#84829A"/>
<path d="M17.4719 24.1298C18.7783 24.6778 20.0845 24.9587 21.2992 24.9587C22.391 24.9587 23.4092 24.7342 24.2866 24.279C26.0525 23.363 27.1315 21.6108 27.4071 19.2113C27.6878 16.7659 28.0373 15.2342 28.3289 14.2971C25.7336 15.4943 20.1688 18.5974 17.4719 24.1298Z" fill="#84829A"/>
</g>
</g>
<defs>
<filter id="filter0_d" x="0" y="0" width="44" height="44" filterUnits="userSpaceOnUse" color-interpolation-filters="sRGB">
<feFlood flood-opacity="0" result="BackgroundImageFix"/>
<feColorMatrix in="SourceAlpha" type="matrix" values="0 0 0 0 0 0 0 0 0 0 0 0 0 0 0 0 0 0 127 0" result="hardAlpha"/>
<feOffset dy="4"/>
<feGaussianBlur stdDeviation="2"/>
<feComposite in2="hardAlpha" operator="out"/>
<feColorMatrix type="matrix" values="0 0 0 0 0 0 0 0 0 0 0 0 0 0 0 0 0 0 0.25 0"/>
<feBlend mode="normal" in2="BackgroundImageFix" result="effect1_dropShadow"/>
<feBlend mode="normal" in="SourceGraphic" in2="effect1_dropShadow" result="shape"/>
</filter>
<clipPath id="clip0">
<rect width="14" height="14" fill="white" transform="translate(15 12)"/>
</clipPath>
</defs>
</svg>
